<svg width="2693" height="543" viewBox="0 0 2693 543" fill="none" xmlns="http://www.w3.org/2000/svg">
<g clip-path="url(#clip0_34:17864)">
<path d="M736.914 421.965C715.752 421.965 696.808 416.715 680.083 406.217C663.699 395.717 650.728 380.815 641.171 361.51C631.955 341.868 627.348 318.16 627.348 290.388C627.348 262.278 632.297 238.401 642.195 218.759C652.095 198.776 665.406 183.705 682.132 173.545C699.197 163.046 718.312 157.796 739.474 157.796C757.907 157.796 773.779 162.199 787.09 171.005C800.402 179.81 810.471 191.495 817.297 206.058V51.6211H887.441V416.884H824.465L821.393 367.607C814.225 384.541 803.132 397.918 788.113 407.74C773.095 417.223 756.029 421.965 736.914 421.965ZM757.394 368.622C775.484 368.622 789.991 361.679 800.913 347.794C811.836 333.569 817.297 313.588 817.297 287.848C817.297 263.464 811.836 244.668 800.913 231.458C790.333 217.912 776.168 211.138 758.418 211.138C739.303 211.138 724.285 217.912 713.363 231.458C702.781 244.668 697.491 264.14 697.491 289.881C697.491 315.62 702.781 335.262 713.363 348.811C723.944 362.018 738.621 368.622 757.394 368.622Z" fill="#3B3DDD"/>
<path d="M1077.88 157.798C1103.48 157.798 1126.18 163.048 1145.97 173.547C1165.77 184.046 1181.13 199.117 1192.05 218.761C1203.32 238.403 1208.95 262.11 1208.95 289.883C1208.95 317.654 1203.32 341.361 1192.05 361.005C1181.13 380.647 1165.77 395.719 1145.97 406.218C1126.18 416.716 1103.48 421.966 1077.88 421.966C1051.94 421.966 1029.07 416.716 1009.27 406.218C989.815 395.719 974.454 380.647 963.19 361.005C952.268 341.361 946.807 317.654 946.807 289.883C946.807 262.11 952.268 238.403 963.19 218.761C974.454 199.117 989.815 184.046 1009.27 173.547C1029.07 163.048 1051.94 157.798 1077.88 157.798ZM1077.88 209.615C1058.76 209.615 1043.74 216.39 1032.82 229.936C1022.24 243.144 1016.95 263.127 1016.95 289.883C1016.95 316.637 1022.24 336.789 1032.82 350.336C1043.74 363.545 1058.76 370.149 1077.88 370.149C1096.65 370.149 1111.33 363.545 1121.91 350.336C1132.83 336.789 1138.29 316.637 1138.29 289.883C1138.29 263.127 1132.83 243.144 1121.91 229.936C1111.33 216.39 1096.65 209.615 1077.88 209.615Z" fill="#3B3DDD"/>
<path d="M1383.86 157.798C1417.99 157.798 1444.44 165.08 1463.22 179.643C1482.33 194.206 1494.96 211.816 1501.1 232.477L1435.57 255.845C1428.74 225.025 1411.85 209.615 1384.88 209.615C1365.43 209.615 1350.24 216.39 1339.31 229.936C1328.73 243.483 1323.44 263.635 1323.44 290.389C1323.44 317.484 1328.9 337.635 1339.83 350.844C1351.09 363.713 1366.28 370.149 1385.39 370.149C1415.09 370.149 1432.84 355.077 1438.64 324.935L1502.13 345.255C1496.32 367.948 1483.35 386.405 1463.22 400.629C1443.42 414.854 1417.65 421.966 1385.91 421.966C1359.28 421.966 1335.9 416.716 1315.76 406.218C1295.97 395.719 1280.6 380.647 1269.68 361.005C1258.76 341.361 1253.3 317.654 1253.3 289.883C1253.3 262.11 1258.76 238.403 1269.68 218.761C1280.95 199.117 1296.31 184.046 1315.76 173.547C1335.56 163.048 1358.26 157.798 1383.86 157.798Z" fill="#3B3DDD"/>
<path d="M1729.17 162.876V214.692H1647.27V334.077C1647.27 346.269 1650.33 355.244 1656.48 361.002C1662.96 366.42 1671.67 369.129 1682.59 369.129C1691.46 369.129 1698.96 367.945 1705.11 365.574C1711.6 362.864 1717.41 359.307 1722.52 354.905L1733.78 401.135C1725.25 407.569 1714.85 412.65 1702.55 416.375C1690.62 420.101 1677.81 421.963 1664.15 421.963C1638.56 421.963 1617.56 416.205 1601.17 404.69C1585.14 392.837 1577.11 373.025 1577.11 345.252V214.692H1530.01V162.876H1577.11V104.454L1647.27 85.1494V162.876H1729.17Z" fill="#3B3DDD"/>
<path d="M1893.37 157.798C1918.98 157.798 1941.67 163.048 1961.48 173.547C1981.28 184.046 1996.64 199.117 2007.56 218.761C2018.82 238.403 2024.44 262.11 2024.44 289.883C2024.44 317.654 2018.82 341.361 2007.56 361.005C1996.64 380.647 1981.28 395.719 1961.48 406.218C1941.67 416.716 1918.98 421.966 1893.37 421.966C1867.43 421.966 1844.57 416.716 1824.78 406.218C1805.32 395.719 1789.96 380.647 1778.7 361.005C1767.78 341.361 1762.31 317.654 1762.31 289.883C1762.31 262.11 1767.78 238.403 1778.7 218.761C1789.96 199.117 1805.32 184.046 1824.78 173.547C1844.57 163.048 1867.43 157.798 1893.37 157.798ZM1893.37 209.615C1874.26 209.615 1859.25 216.39 1848.33 229.936C1837.75 243.144 1832.45 263.127 1832.45 289.883C1832.45 316.637 1837.75 336.789 1848.33 350.336C1859.25 363.545 1874.26 370.149 1893.37 370.149C1912.15 370.149 1926.83 363.545 1937.4 350.336C1948.32 336.789 1953.79 316.637 1953.79 289.883C1953.79 263.127 1948.32 243.144 1937.4 229.936C1926.83 216.39 1912.15 209.615 1893.37 209.615Z" fill="#3B3DDD"/>
<path d="M2083.12 416.886V162.878H2144.05L2148.66 212.663C2155.14 195.39 2164.88 182.013 2177.85 172.53C2191.16 162.709 2207.89 157.798 2228.03 157.798C2239.96 157.798 2249.19 159.661 2255.68 163.386L2247.48 221.807C2244.06 220.792 2239.79 219.945 2234.68 219.267C2229.9 218.252 2223.59 217.744 2215.73 217.744C2205.15 217.744 2195.09 220.284 2185.52 225.364C2176.31 230.106 2168.64 237.557 2162.49 247.716C2156.34 257.538 2153.28 270.069 2153.28 285.309V416.886H2083.12Z" fill="#3B3DDD"/>
<path d="M2368.26 51.6211V338.65C2368.26 350.504 2370.31 358.802 2374.39 363.543C2378.48 368.285 2385.31 370.656 2394.88 370.656C2400.67 370.656 2405.46 370.317 2409.2 369.639C2412.96 368.961 2417.74 367.607 2423.54 365.575L2417.4 411.295C2411.59 414.683 2404.26 417.223 2395.38 418.916C2386.85 420.948 2378.31 421.965 2369.78 421.965C2344.87 421.965 2326.6 416.037 2315 404.183C2303.74 391.992 2298.1 372.687 2298.1 346.27V51.6211H2368.26Z" fill="#3B3DDD"/>
<path d="M2693.27 162.879L2589.85 432.634C2581.66 455.665 2572.45 473.953 2562.2 487.5C2552.29 501.386 2540.69 511.207 2527.38 516.966C2514.41 523.061 2498.89 526.11 2480.78 526.11C2467.47 526.11 2455.2 524.586 2443.92 521.538C2433 518.489 2423.45 514.256 2415.25 508.837L2430.1 458.543C2442.06 468.026 2457.08 472.767 2475.16 472.767C2485.05 472.767 2493.42 470.735 2500.24 466.672C2507.06 462.608 2512.87 454.479 2517.65 442.287L2526.35 420.443L2498.19 354.4L2419.86 162.879H2497.68L2546.33 315.283L2559.64 366.084L2575.51 312.235L2622.1 162.879H2693.27Z" fill="#3B3DDD"/>
<path d="M293.113 193.399H392.975V269H485.675C486.556 260.518 487 251.999 487 243.472C486.996 187.536 467.712 133.304 432.389 89.881C397.063 46.4578 347.846 16.4868 293 5L293.113 193.399Z" fill="#3B3DDD"/>
<path d="M191.749 194V94.089H268V1.28254C259.706 0.452944 251.302 0 242.755 0C186.999 0.0066766 132.941 19.289 89.6513 54.612C46.3616 89.9352 16.4729 139.15 5 194H191.749Z" fill="#3B3DDD"/>
<path d="M294.386 291V391.433H218V484.546C226.785 485.509 235.612 485.994 244.45 486C300.153 486 354.162 466.622 397.414 431.119C440.668 395.611 470.534 346.139 482 291H294.386Z" fill="#3B3DDD"/>
<path d="M193 292.701H94.1169V217H1.30657C0.430116 225.486 -0.00597106 234.01 6.17395e-05 242.541C0.00415963 298.322 19.1629 352.419 54.283 395.81C89.403 439.201 138.362 469.267 193 481V292.701Z" fill="#3B3DDD"/>
</g>
<defs>
<clipPath id="clip0_34:17864">
<rect width="2693" height="543" fill="white"/>
</clipPath>
</defs>
</svg>
